<svg xmlns="http://www.w3.org/2000/svg" id="female" width="81.965" height="83.332" viewBox="0 0 81.965 83.332">
    <defs>
        <linearGradient id="linear-gradient" x1=".5" x2=".5" y2="1" gradientUnits="objectBoundingBox">
            <stop offset="0" stop-color="#ff2c00"/>
            <stop offset="1" stop-color="red"/>
        </linearGradient>
        <style>
            .cls-1{fill:current, stroke:current}
        </style>
    </defs>
    <path  id="Path_5421" d="M16.893 234.818a1.366 1.366 0 0 0-.755-1.222l-13.662-6.83A1.365 1.365 0 0 0 .5 227.988v13.661a1.366 1.366 0 0 0 1.977 1.222l13.662-6.831a1.365 1.365 0 0 0 .754-1.222zm-13.661 4.62V230.2l9.241 4.62zm0 0" class="cls-1" transform="translate(-.5 -189.738)"/>
    <path id="Path_5422" d="M419.128 226.826a1.367 1.367 0 0 0-1.329-.06l-13.661 6.83a1.367 1.367 0 0 0 0 2.445l13.661 6.83a1.365 1.365 0 0 0 1.977-1.222v-13.66a1.366 1.366 0 0 0-.647-1.162zm-2.085 12.612l-9.24-4.62 9.24-4.62zm0 0" class="cls-1" transform="translate(-337.81 -189.738)"/>
    <path id="Path_5423" d="M243.906 293.77h2.733v2.73h-2.733zm0 0" class="cls-1" transform="translate(-204.29 -245.956)"/>
    <path id="Path_5424" d="M130.344 56.938l-1.978-7.346a30.512 30.512 0 0 1 0-15.853l2-7.428a1.3 1.3 0 0 0 .024-.374 16.682 16.682 0 0 0 4.121-11.188v-1.32c0-6.651-4.576-12.063-10.2-12.063h-7.557A1.367 1.367 0 0 0 115.387 0h-15.028a1.366 1.366 0 0 0-1.366 1.366h-8.924c-5.625 0-10.2 5.411-10.2 12.062v1.321a16.682 16.682 0 0 0 4.121 11.189 1.352 1.352 0 0 0 .024.374l2 7.428a30.511 30.511 0 0 1 0 15.853l-1.978 7.346-3.6 8.635c-2.19 5.255-1.51 10.859-.55 16.617a1.366 1.366 0 0 0 1.347 1.142h51.912a1.365 1.365 0 0 0 1.347-1.142c.96-5.758 1.64-11.362-.55-16.617zM101.725 2.732h12.3v.125a2.611 2.611 0 0 1-2.607 2.607h-7.08a2.611 2.611 0 0 1-2.608-2.607zM82.6 13.428c0-5.144 3.351-9.329 7.47-9.329h9.085a5.339 5.339 0 0 0 5.179 4.1h7.08a5.339 5.339 0 0 0 5.179-4.1h7.718c4.119 0 7.47 4.185 7.47 9.329v1.321c0 6.932-4.553 12.573-10.15 12.573a1.366 1.366 0 0 0 0 2.733 11.1 11.1 0 0 0 5.262-1.35l-1.164 4.324a33.294 33.294 0 0 0-.785 3.857H89.436a33.027 33.027 0 0 0-.785-3.857L87.487 28.7a11.1 11.1 0 0 0 5.262 1.35 1.366 1.366 0 0 0 0-2.733c-5.6 0-10.15-5.641-10.15-12.573zM88.652 50.3a33.233 33.233 0 0 0 1.074-10.686h16.1v4.1a1.366 1.366 0 0 0 2.733 0v-4.1h16.1a33.257 33.257 0 0 0 1.068 10.686l1.643 6.1c-1.873 1.8-9.571 3.705-20.18 3.705S88.882 58.2 87.009 56.4zm43.332 30.3H114.3l2.227-3.34a1.366 1.366 0 0 0-2.274-1.516l-2.732 4.1a1.327 1.327 0 0 0-.2.758h-8.247a1.332 1.332 0 0 0-.2-.758l-2.733-4.1a1.366 1.366 0 1 0-2.273 1.516l2.226 3.34H82.395c-.784-4.944-1.212-9.717.563-13.975l3.127-7.5c3.539 2.255 11.684 3.721 21.105 3.721s17.567-1.465 21.1-3.721l3.127 7.5c1.774 4.258 1.347 9.031.563 13.975zm0 0" class="cls-1" transform="translate(-66.207)"/>
    <path id="Path_5425" d="M203.308 145.976a6.837 6.837 0 0 0 6.779-5.984 1.366 1.366 0 0 0-2.712-.336 4.1 4.1 0 0 1-4.067 3.588 1.366 1.366 0 1 0 0 2.732zm0 0" class="cls-1" transform="translate(-169.155 -115.923)"/>
    <path id="Path_5426" d="M267.485 145.973a1.366 1.366 0 1 0 0-2.732 4.1 4.1 0 0 1-4.067-3.588 1.366 1.366 0 0 0-2.711.336 6.836 6.836 0 0 0 6.778 5.985zm0 0" class="cls-1" transform="translate(-218.347 -115.919)"/>
</svg>
