<svg xmlns="http://www.w3.org/2000/svg" width="69.968" height="80.037" viewBox="0 0 69.968 80.037">
    <defs>
        <linearGradient id="7q0xun2aua" x1=".5" x2=".5" y2="1" gradientUnits="objectBoundingBox">
            <stop offset="0" stop-color="#ff2c00"/>
            <stop offset="1" stop-color="red"/>
        </linearGradient>
    </defs>
    <path fill="current" stroke="current" d="M88.843 27.379a27.379 27.379 0 0 0-54.758 0c-3.909.487-7.605 3.042-7.605 8.974v14.3c0 6.693 4.685 9.126 9.126 9.126h4.411a1.521 1.521 0 0 0 1.521-1.521V28.809a1.521 1.521 0 0 0-1.521-1.521h-2.89a24.337 24.337 0 1 1 48.673 0h-2.89a1.521 1.521 0 0 0-1.521 1.521v29.4a1.521 1.521 0 0 0 1.521 1.521h2.89c-.426 10.45-5.445 12.9-15.469 13.34v-1.018a3.042 3.042 0 0 0-3.041-3.042h-9.568a3.042 3.042 0 0 0-3.042 3.042V77a3.042 3.042 0 0 0 3.042 3.042h9.6A3.042 3.042 0 0 0 70.362 77v-.882c9.643-.441 17.979-2.434 18.481-16.473 3.909-.487 7.605-3.042 7.605-8.974v-14.3c0-5.965-3.681-8.505-7.605-8.992zM38.5 30.223v26.466h-2.97c-2.251 0-6.084-.791-6.084-6.084v-14.3c0-5.248 3.787-6.084 6.084-6.084zM67.32 74.7v2.31h-9.6v-4.943h9.6zm26.086-24.049c0 5.248-3.787 6.084-6.084 6.084h-2.89V30.33H87.4c2.251 0 6.084.791 6.084 6.084z" transform="translate(-26.48)"/>
</svg>
