<svg xmlns="http://www.w3.org/2000/svg" id="muscle" width="current" height="current" viewBox="0 0 78.922 81.864" fill="current" stroke="current">
    <defs>
        <linearGradient id="linear-gradient" x1=".5" x2=".5" y2="1" gradientUnits="objectBoundingBox">
            <stop offset="0" stop-color="#ff2c00"/>
            <stop offset="1" stop-color="red"/>
        </linearGradient>
        <style>
            .cls-1{fill:current, stroke:current}
        </style>
    </defs>
    <path id="Path_5430" d="M337.8 55.433a1.361 1.361 0 0 0 1.924 0l9.48-9.48a6.967 6.967 0 0 0-9.853-9.853l-.59.588-.588-.588a6.967 6.967 0 1 0-9.853 9.852zm-7.555-17.408a4.251 4.251 0 0 1 6 0l1.551 1.551a1.361 1.361 0 0 0 1.924 0l1.551-1.551a4.245 4.245 0 0 1 6 6l-8.518 8.517-8.517-8.517a4.244 4.244 0 0 1 0-6zm0 0" class="cls-1" transform="translate(-274.109 -28.617)"/>
    <path id="Path_5431" d="M77.41 78.93a38.192 38.192 0 0 1-20.948-3.912 1.356 1.356 0 0 0-1.032-.131c-.147.039-14.777 3.961-26.561 1.345-7.346-1.632-14.275-6.808-19.335-10.586-.68-.507-1.323-.989-1.928-1.43a15.458 15.458 0 0 0-3.3-1.55c-.52-.2-1.232-.472-1.385-.567a.533.533 0 0 1-.2-.43v-3.154c.066-2.5 10.53-40.9 12.152-45.784a1.052 1.052 0 0 1 .311-.225l20.709-9.459 6.695 8.716a1.2 1.2 0 0 1-.073 1.5L35.9 20.679a1.179 1.179 0 0 1-1.614.161l-2.676-2.466a1.37 1.37 0 0 0-1.177-.307 1.427 1.427 0 0 0-.987.753c-.224.44-2.249.98-4.315 1l-.673-.068a1.345 1.345 0 0 0-1.327.693 1.361 1.361 0 0 0 .112 1.493c.575.743 1.022 1.339 1.276 1.681l1.324 22.508c-.821 3.2-1.573 4.1-1.759 4.286a1.361 1.361 0 0 0 .409 2.659c1.543 0 2.855-2.028 3.908-5.987 10.823-8.1 20.269-.455 21.009.174C52.847 50.7 53.06 53 53.067 53.1a1.361 1.361 0 0 0 2.722-.03c0-.313-.114-3-3.636-6.877 3.321-4.083 7.1-6.436 11.269-6.948 7.181-.884 13.218 3.945 13.278 3.993a1.361 1.361 0 0 0 1.722-2.107c-.281-.229-6.963-5.6-15.305-4.59-4.876.591-9.253 3.228-13.026 7.844-3.062-2.082-11.842-6.8-21.662-.631l-1.218-20.7a1.352 1.352 0 0 0-.2-.631 8.942 8.942 0 0 0 3.72-1.154l1.753 1.616a3.9 3.9 0 0 0 5.443-.391l6.615-7.417a3.944 3.944 0 0 0 .221-4.942L37.39.531a1.36 1.36 0 0 0-1.644-.408l-21.676 9.9a3.309 3.309 0 0 0-1.754 1.793C11.545 14.129 0 55.3 0 58.511v3.159a3.248 3.248 0 0 0 1.248 2.573 8.643 8.643 0 0 0 2.09.966A14.755 14.755 0 0 1 6 66.413c.6.437 1.234.912 1.906 1.415 5.257 3.926 12.456 9.3 20.374 11.062 11.27 2.5 24.5-.523 27.336-1.238a40.78 40.78 0 0 0 17.937 4.212 37.448 37.448 0 0 0 4.158-.229 1.361 1.361 0 1 0-.3-2.7zm0 0" class="cls-1"/>
    <path id="Path_5432" d="M428.225 384.175a1.361 1.361 0 0 0-2.714.151c0 .909.671 3.986 9.3 5.424a1.383 1.383 0 0 0 .225.019 1.361 1.361 0 0 0 .222-2.7c-6.033-1.01-6.952-2.713-7.033-2.894zm0 0" class="cls-1" transform="translate(-357.476 -321.732)"/>
    <path id="Path_5433" d="M130.412 384.012c-17.822 3.817-25.449-8.377-25.764-8.9a1.361 1.361 0 0 0-2.332 1.4 23.351 23.351 0 0 0 6.885 6.732 26.394 26.394 0 0 0 14.635 4.21 34.076 34.076 0 0 0 7.146-.786 1.361 1.361 0 1 0-.57-2.662zm0 0" class="cls-1" transform="translate(-85.793 -314.585)"/>
</svg>
