<svg xmlns="http://www.w3.org/2000/svg" width="86.312" height="54.803" viewBox="0 0 86.312 54.803">
    <defs>
        <linearGradient id="nozbm3t5sa" x1=".5" x2=".5" y2="1" gradientUnits="objectBoundingBox">
            <stop offset="0" stop-color="#ff2c00"/>
            <stop offset="1" stop-color="red"/>
        </linearGradient>
    </defs>
    <path fill="current" stroke="current" d="M74.648 116.364a9.854 9.854 0 1 0-11.306 0 17.074 17.074 0 0 0-5.824 3.416 22.093 22.093 0 0 0-7.992-4.355 12.484 12.484 0 1 0-12.911 0 22.277 22.277 0 0 0-7.907 4.3 17.212 17.212 0 0 0-5.755-3.347 9.854 9.854 0 1 0-11.306 0A17.3 17.3 0 0 0 0 132.725v1.127a.073.073 0 0 0 .068.068h20.887a22.969 22.969 0 0 0-.188 2.886v1.161a9.081 9.081 0 0 0 9.085 9.086h26.471a9.081 9.081 0 0 0 9.085-9.086v-1.161a22.968 22.968 0 0 0-.188-2.886h21.024a.073.073 0 0 0 .068-.068v-1.127a17.363 17.363 0 0 0-11.664-16.361zm-12.774-8.078a7.122 7.122 0 1 1 7.258 7.122h-.273a7.111 7.111 0 0 1-6.985-7.122zm-28.589-3.552a9.752 9.752 0 1 1 10.315 9.734h-1.127a9.766 9.766 0 0 1-9.188-9.734zm-23.158 3.552a7.122 7.122 0 1 1 7.258 7.122h-.273a7.123 7.123 0 0 1-6.985-7.122zm11.306 22.884H2.767a14.592 14.592 0 0 1 14.38-13.03h.2a14.44 14.44 0 0 1 9.307 3.467 22.423 22.423 0 0 0-5.221 9.564zm41.209 6.8a6.363 6.363 0 0 1-6.353 6.353H29.818a6.363 6.363 0 0 1-6.353-6.353v-1.161a19.618 19.618 0 0 1 19.008-19.588c.188.017.393.017.581.017s.393 0 .581-.017a19.618 19.618 0 0 1 19.008 19.588zm2.032-6.8a22.364 22.364 0 0 0-5.175-9.5 14.51 14.51 0 0 1 9.393-3.535h.2a14.592 14.592 0 0 1 14.38 13.03z" transform="translate(0 -92.25)"/>
</svg>
